<?xml version="1.0" encoding="utf-8"?>
<!-- Generator: Adobe Illustrator 19.1.0, SVG Export Plug-In . SVG Version: 6.00 Build 0)  -->
<svg version="1.1" id="レイヤー_1" xmlns="http://www.w3.org/2000/svg" xmlns:xlink="http://www.w3.org/1999/xlink" x="0px"
	 y="0px" viewBox="-72 122.8 139 173.8" style="enable-background:new -72 122.8 139 173.8;" xml:space="preserve">
<style type="text/css">
	.st0{fill:#FFFFFF;}
	.st1{font-family:'HelveticaNeue-Bold';}
	.st2{font-size:5px;}
</style>
<path class="st0" d="M-21.8,170.5c3.7,0,6.6,3,6.6,6.6v15.2c0.3-0.3,0.6-0.6,1-0.8l31.3-18.1c1.2-0.7,2.8-0.7,4,0c1.2,0.7,2,2,2,3.5
	V213c0,1.4-0.8,2.8-2,3.5c-0.6,0.4-1.3,0.5-2,0.5c-0.7,0-1.4-0.2-2-0.5l-31.3-18.1c-0.4-0.2-0.7-0.5-1-0.8v13.9c0,3.7-3,6.6-6.6,6.6
	s-6.6-3-6.6-6.6v-34.3C-28.5,173.4-25.5,170.5-21.8,170.5z"/>
<text transform="matrix(1 0 0 1 -72 276.78)" class="st1 st2">Created by Nut Chanut</text>
<text transform="matrix(1 0 0 1 -72 281.78)" class="st1 st2">from the Noun Project</text>
</svg>
