<?xml version="1.0" encoding="utf-8"?>
<!-- Generator: Adobe Illustrator 19.1.0, SVG Export Plug-In . SVG Version: 6.00 Build 0)  -->
<svg version="1.1" id="レイヤー_1" xmlns="http://www.w3.org/2000/svg" xmlns:xlink="http://www.w3.org/1999/xlink" x="0px"
	 y="0px" viewBox="-72 122.8 139 173.8" style="enable-background:new -72 122.8 139 173.8;" xml:space="preserve">
<style type="text/css">
	.st0{fill:#FFFFFF;}
	.st1{font-family:'HelveticaNeue-Bold';}
	.st2{font-size:5px;}
</style>
<path class="st0" d="M-8.3,209.5c0,3.7-3,6.6-6.6,6.6l0,0c-3.7,0-6.6-3-6.6-6.6v-34.3c0-3.7,3-6.6,6.6-6.6l0,0c3.7,0,6.6,3,6.6,6.6
	V209.5z"/>
<path class="st0" d="M16.6,209.5c0,3.7-3,6.6-6.6,6.6l0,0c-3.7,0-6.6-3-6.6-6.6v-34.3c0-3.7,3-6.6,6.6-6.6l0,0c3.7,0,6.6,3,6.6,6.6
	V209.5z"/>
<text transform="matrix(1 0 0 1 -72 276.78)" class="st1 st2">Created by Nut Chanut</text>
<text transform="matrix(1 0 0 1 -72 281.78)" class="st1 st2">from the Noun Project</text>
</svg>
