<?xml version="1.0" encoding="utf-8"?>
<!-- Generator: Adobe Illustrator 19.1.0, SVG Export Plug-In . SVG Version: 6.00 Build 0)  -->
<svg version="1.1" id="レイヤー_1" xmlns="http://www.w3.org/2000/svg" xmlns:xlink="http://www.w3.org/1999/xlink" x="0px"
	 y="0px" viewBox="-72 122.8 139 173.8" style="enable-background:new -72 122.8 139 173.8;" xml:space="preserve">
<style type="text/css">
	.st0{fill:#FFFFFF;}
	.st1{font-family:'HelveticaNeue-Bold';}
	.st2{font-size:5px;}
</style>
<path class="st0" d="M20.4,191.7l-36.1-20.8c-0.9-0.5-2-0.5-3,0c-0.9,0.5-1.5,1.5-1.5,2.6v41.7c0,1.1,0.6,2,1.5,2.6
	c0.5,0.3,1,0.4,1.5,0.4c0.5,0,1-0.1,1.5-0.4l36.1-20.8c0.9-0.5,1.5-1.5,1.5-2.6C21.8,193.2,21.3,192.2,20.4,191.7z"/>
<text transform="matrix(1 0 0 1 -72 276.78)" class="st1 st2">Created by Nut Chanut</text>
<text transform="matrix(1 0 0 1 -72 281.78)" class="st1 st2">from the Noun Project</text>
</svg>
