<?xml version="1.0" encoding="utf-8"?>
<!-- Generator: Adobe Illustrator 19.1.0, SVG Export Plug-In . SVG Version: 6.00 Build 0)  -->
<svg version="1.1" id="レイヤー_1" xmlns="http://www.w3.org/2000/svg" xmlns:xlink="http://www.w3.org/1999/xlink" x="0px"
	 y="0px" viewBox="-72 122.8 139 173.8" style="enable-background:new -72 122.8 139 173.8;" xml:space="preserve">
<style type="text/css">
	.st0{fill:#FFFFFF;}
	.st1{font-family:'HelveticaNeue-Bold';}
	.st2{font-size:5px;}
</style>
<path class="st0" d="M-23.2,169.6c0-3.4-2.7-6.1-6.1-6.1c-3.4,0-6.1,2.7-6.1,6.1v32.3h-6.7v5.3h6.7v7.7c0,3.4,2.7,6.1,6.1,6.1
	c3.4,0,6.1-2.7,6.1-6.1v-7.7h6.7v-5.3h-6.7V169.6z"/>
<path class="st0" d="M3.6,169.6c0-3.4-2.7-6.1-6.1-6.1c-3.4,0-6.1,2.7-6.1,6.1v4.7h-6.7v5.3h6.7v35.4c0,3.4,2.7,6.1,6.1,6.1
	c3.4,0,6.1-2.7,6.1-6.1v-35.4h6.7v-5.3H3.6V169.6z"/>
<path class="st0" d="M37.1,201.9h-6.7v-32.3c0-3.4-2.7-6.1-6.1-6.1c-3.4,0-6.1,2.7-6.1,6.1v32.3h-6.7v5.3h6.7v7.7
	c0,3.4,2.7,6.1,6.1,6.1c3.4,0,6.1-2.7,6.1-6.1v-7.7h6.7V201.9z"/>
<text transform="matrix(1 0 0 1 -72 276.78)" class="st1 st2">Created by Nut Chanut</text>
<text transform="matrix(1 0 0 1 -72 281.78)" class="st1 st2">from the Noun Project</text>
</svg>
