<?xml version="1.0" encoding="utf-8"?>
<!-- Generator: Adobe Illustrator 19.1.0, SVG Export Plug-In . SVG Version: 6.00 Build 0)  -->
<svg version="1.1" id="レイヤー_1" xmlns="http://www.w3.org/2000/svg" xmlns:xlink="http://www.w3.org/1999/xlink" x="0px"
	 y="0px" viewBox="-72 122.8 139 173.8" style="enable-background:new -72 122.8 139 173.8;" xml:space="preserve">
<style type="text/css">
	.st0{fill:#FFFFFF;}
	.st1{font-family:'HelveticaNeue-Bold';}
	.st2{font-size:5px;}
</style>
<path class="st0" d="M3.3,163.5c-1.3-0.7-2.9-0.5-4.1,0.4l-12.5,9.8c-0.7-0.2-1.4-0.3-2.1-0.3h-12.8c-4.2,0-7.6,3.4-7.6,7.6v22.2
	c0,4.2,3.4,7.6,7.6,7.6h12.8c0.6,0,1.3-0.1,1.8-0.2l12.8,10c0.7,0.5,1.6,0.8,2.4,0.8c0.6,0,1.2-0.1,1.7-0.4c1.3-0.7,2.2-2,2.2-3.5
	V167C5.5,165.5,4.6,164.2,3.3,163.5z"/>
<path class="st0" d="M28.4,194.9H16.2c-1.4,0-2.5-1.1-2.5-2.5c0-1.4,1.1-2.5,2.5-2.5h12.2c1.4,0,2.5,1.1,2.5,2.5
	C30.9,193.8,29.8,194.9,28.4,194.9z"/>
<path class="st0" d="M28.4,171.4l-10.5,6.1c-1.2,0.7-2.7,0.3-3.4-0.9c-0.7-1.2-0.3-2.7,0.9-3.4l10.5-6.1c1.2-0.7,2.7-0.3,3.4,0.9
	C30,169.2,29.6,170.7,28.4,171.4z"/>
<path class="st0" d="M28.7,213.3l-10.5-6.1c-1.2-0.7-2.7-0.3-3.4,0.9c-0.7,1.2-0.3,2.7,0.9,3.4l10.5,6.1c1.2,0.7,2.7,0.3,3.4-0.9
	C30.3,215.5,29.9,214,28.7,213.3z"/>
<text transform="matrix(1 0 0 1 -72 276.78)" class="st1 st2">Created by Nut Chanut</text>
<text transform="matrix(1 0 0 1 -72 281.78)" class="st1 st2">from the Noun Project</text>
</svg>
